<svg width="630" height="317" viewBox="0 0 630 317" fill="none" xmlns="http://www.w3.org/2000/svg">
<mask id="mask0_3639_6606" style="mask-type:alpha" maskUnits="userSpaceOnUse" x="0" y="0" width="630" height="317">
<rect width="630" height="317" rx="20" fill="#8F9AA3"/>
</mask>
<g mask="url(#mask0_3639_6606)">
<g opacity="0.3">
<mask id="path-2-inside-1_3639_6606" fill="white">
<path d="M361 241.594C361 270.194 372.362 297.623 392.585 317.846C412.808 338.069 440.237 349.431 468.837 349.431C497.437 349.431 524.865 338.069 545.089 317.846C565.312 297.623 576.673 270.194 576.673 241.594L468.837 241.594L361 241.594Z"/>
</mask>
<path d="M361 241.594C361 270.194 372.362 297.623 392.585 317.846C412.808 338.069 440.237 349.431 468.837 349.431C497.437 349.431 524.865 338.069 545.089 317.846C565.312 297.623 576.673 270.194 576.673 241.594L468.837 241.594L361 241.594Z" stroke="white" stroke-width="2" mask="url(#path-2-inside-1_3639_6606)"/>
<mask id="path-3-inside-2_3639_6606" fill="white">
<path d="M398.798 55.9375C398.798 75.3973 406.529 94.0601 420.289 107.82C434.049 121.58 452.712 129.311 472.172 129.311C491.631 129.311 510.294 121.58 524.054 107.82C537.815 94.0601 545.545 75.3973 545.545 55.9375L472.172 55.9375L398.798 55.9375Z"/>
</mask>
<path d="M398.798 55.9375C398.798 75.3973 406.529 94.0601 420.289 107.82C434.049 121.58 452.712 129.311 472.172 129.311C491.631 129.311 510.294 121.58 524.054 107.82C537.815 94.0601 545.545 75.3973 545.545 55.9375L472.172 55.9375L398.798 55.9375Z" stroke="white" stroke-width="2" mask="url(#path-3-inside-2_3639_6606)"/>
<mask id="path-4-inside-3_3639_6606" fill="white">
<path d="M661.164 25.7109C632.564 25.7108 605.135 37.0722 584.912 57.2954C564.688 77.5187 553.327 104.947 553.327 133.547C553.327 162.147 564.688 189.576 584.912 209.799C605.135 230.022 632.563 241.384 661.163 241.384L661.164 133.547L661.164 25.7109Z"/>
</mask>
<path d="M661.164 25.7109C632.564 25.7108 605.135 37.0722 584.912 57.2954C564.688 77.5187 553.327 104.947 553.327 133.547C553.327 162.147 564.688 189.576 584.912 209.799C605.135 230.022 632.563 241.384 661.163 241.384L661.164 133.547L661.164 25.7109Z" stroke="white" stroke-width="2" mask="url(#path-4-inside-3_3639_6606)"/>
<mask id="path-5-inside-4_3639_6606" fill="white">
<path d="M605.578 33.1476C605.578 17.6682 599.429 2.82281 588.483 -8.12277C577.538 -19.0683 562.692 -25.2175 547.213 -25.2175C531.733 -25.2175 516.888 -19.0683 505.942 -8.12277C494.997 2.82281 488.848 17.6682 488.848 33.1476L547.213 33.1476L605.578 33.1476Z"/>
</mask>
<path d="M605.578 33.1476C605.578 17.6682 599.429 2.82281 588.483 -8.12277C577.538 -19.0683 562.692 -25.2175 547.213 -25.2175C531.733 -25.2175 516.888 -19.0683 505.942 -8.12277C494.997 2.82281 488.848 17.6682 488.848 33.1476L547.213 33.1476L605.578 33.1476Z" stroke="white" stroke-width="2" mask="url(#path-5-inside-4_3639_6606)"/>
<mask id="path-6-inside-5_3639_6606" fill="white">
<path d="M543.322 203.239C543.322 187.76 537.172 172.915 526.227 161.969C515.281 151.023 500.436 144.874 484.956 144.874C469.477 144.874 454.632 151.023 443.686 161.969C432.74 172.915 426.591 187.76 426.591 203.239L484.956 203.239L543.322 203.239Z"/>
</mask>
<path d="M543.322 203.239C543.322 187.76 537.172 172.915 526.227 161.969C515.281 151.023 500.436 144.874 484.956 144.874C469.477 144.874 454.632 151.023 443.686 161.969C432.74 172.915 426.591 187.76 426.591 203.239L484.956 203.239L543.322 203.239Z" stroke="white" stroke-width="2" mask="url(#path-6-inside-5_3639_6606)"/>
<mask id="path-7-inside-6_3639_6606" fill="white">
<path d="M697.85 316.634C697.85 301.155 691.701 286.31 680.756 275.364C669.81 264.418 654.965 258.269 639.485 258.269C624.006 258.269 609.16 264.418 598.215 275.364C587.269 286.31 581.12 301.155 581.12 316.634L639.485 316.634L697.85 316.634Z"/>
</mask>
<path d="M697.85 316.634C697.85 301.155 691.701 286.31 680.756 275.364C669.81 264.418 654.965 258.269 639.485 258.269C624.006 258.269 609.16 264.418 598.215 275.364C587.269 286.31 581.12 301.155 581.12 316.634L639.485 316.634L697.85 316.634Z" stroke="white" stroke-width="2" mask="url(#path-7-inside-6_3639_6606)"/>
</g>
</g>
</svg>
